<svg class="icon mixes-icon" width="20px" height="20px" viewBox="0 0 20 20" version="1.1" xmlns="http://www.w3.org/2000/svg" xmlns:xlink="http://www.w3.org/1999/xlink">
    <path d="M5.544,19.6208333 C5.446,19.6208333 5.25,19.6208333 5.152,19.6208333 L4.074,19.3233333 C2.114,18.9266667 0.742,17.1416667 0.742,15.1583333 L0.742,9.50583333 C0.742,4.44833333 4.76,0.283333333 9.758,0.283333333 L10.934,0.283333333 C15.932,0.283333333 19.95,4.44833333 19.95,9.50583333 L19.95,15.1583333 C19.95,17.1416667 18.578,18.9266667 16.618,19.3233333 L15.54,19.6208333 C15.05,19.72 14.462,19.6208333 14.07,19.2241667 C13.678,18.8275 13.384,18.3316667 13.384,17.8358333 L13.384,12.58 C13.384,11.985 13.678,11.39 14.168,11.0925 C14.658,10.795 15.246,10.6958333 15.834,10.8941667 L16.324,11.0925 L17.5,11.39 C17.5,6.035 15.148,2.66333333 10.346,2.66333333 C5.348,2.66333333 3.192,6.13416667 3.192,11.39 L4.368,11.0925 L4.858,10.8941667 C5.446,10.6958333 6.034,10.6958333 6.524,11.0925 C7.014,11.39 7.308,11.985 7.308,12.58 L7.308,17.8358333 C7.308,18.4308333 7.014,18.9266667 6.622,19.2241667 C6.426,19.5216667 6.034,19.6208333 5.544,19.6208333 Z" id="Shape"></path>
</svg>