<svg class="icon quiz-icon" width="25px" height="18px" viewBox="0 0 25 18" version="1.1" xmlns="http://www.w3.org/2000/svg" xmlns:xlink="http://www.w3.org/1999/xlink">
    <path d="M22.7124183,11.9538462 C24.0849673,10.7846154 24.869281,9.42051282 24.869281,7.95897436 C24.869281,4.06153846 19.379085,0.943589744 12.5163399,0.943589744 C5.75163399,0.943589744 0.163398693,4.06153846 0.163398693,7.95897436 C0.163398693,11.8564103 5.65359477,14.974359 12.5163399,14.974359 C15.1633987,14.974359 17.7124183,14.4871795 19.6732026,13.6102564 L24.9673203,17.2153846 L22.7124183,11.9538462 Z M7.32026144,9.90769231 C6.24183007,9.90769231 5.45751634,9.03076923 5.45751634,8.05641026 C5.45751634,6.98461538 6.33986928,6.20512821 7.32026144,6.20512821 C8.39869281,6.20512821 9.18300654,7.08205128 9.18300654,8.05641026 C9.18300654,9.03076923 8.30065359,9.90769231 7.32026144,9.90769231 Z M12.5163399,9.90769231 C11.4379085,9.90769231 10.6535948,9.03076923 10.6535948,8.05641026 C10.6535948,6.98461538 11.5359477,6.20512821 12.5163399,6.20512821 C13.5947712,6.20512821 14.379085,7.08205128 14.379085,8.05641026 C14.379085,9.03076923 13.5947712,9.90769231 12.5163399,9.90769231 Z M17.7124183,9.90769231 C16.6339869,9.90769231 15.8496732,9.03076923 15.8496732,8.05641026 C15.8496732,6.98461538 16.7320261,6.20512821 17.7124183,6.20512821 C18.7908497,6.20512821 19.5751634,7.08205128 19.5751634,8.05641026 C19.5751634,9.03076923 18.7908497,9.90769231 17.7124183,9.90769231 Z" id="Shape"></path>
</svg>