<svg class="icon speed-icon" width="34px" height="22px" viewBox="0 0 34 22" version="1.1" xmlns="http://www.w3.org/2000/svg" xmlns:xlink="http://www.w3.org/1999/xlink">
                                <path d="M17,0 C7.65,0 0,7.92 0,17.6 C0,18.04 0.141666667,18.4066667 0.495833333,18.7 L3.75416667,21.6333333 C4.32083333,22.1466667 5.24166667,22.0733333 5.7375,21.4866667 C6.23333333,20.9 6.1625,19.9466667 5.59583333,19.4333333 L2.83333333,16.94 C3.1875,9.16666667 9.42083333,2.93333333 17,2.93333333 C24.5791667,2.93333333 30.8125,9.16666667 31.1666667,16.94 L28.4041667,19.4333333 C27.8375,19.9466667 27.7666667,20.9 28.2625,21.4866667 C28.5458333,21.8533333 28.9,22 29.325,22 C29.6791667,22 29.9625,21.8533333 30.2458333,21.6333333 L33.5041667,18.7 C33.7875,18.4066667 34,18.04 34,17.6 C34,7.92 26.35,0 17,0 Z" id="Shape"></path>
                                <path d="M16.4979309,17.7104452 C16.3595914,17.7104452 16.2212518,17.7104452 16.0137425,17.7104452 L12.2094051,11.1670566 C12.0018958,10.803535 11.5177074,11.0943522 11.656047,11.4578738 L14.1461587,18.4374884 C13.1086122,19.2372359 12.3477447,20.5459136 12.3477447,22 L20.5789474,22 C20.5789474,19.6007575 18.7805333,17.7104452 16.4979309,17.7104452 Z" id="Shape"></path>
                                <path d="M17.8947368,7.41666667 L17.8947368,6.33333333 C17.8947368,5.83333333 17.5368421,5.5 17,5.5 C16.4631579,5.5 16.1052632,5.83333333 16.1052632,6.33333333 L16.1052632,7.41666667 C16.1052632,7.91666667 16.4631579,8.25 17,8.25 C17.5368421,8.25 17.8947368,7.91666667 17.8947368,7.41666667 Z" id="Shape"></path>
                                <path d="M12.4198933,7.84239482 L11.9153721,6.8171521 C11.7261767,6.38996764 11.3477858,6.30453074 11.03246,6.56084142 C10.7171342,6.8171521 10.6540691,7.32977346 10.8432645,7.75695793 L11.3477858,8.78220065 C11.6000464,9.3802589 12.1045676,9.12394822 12.2306979,9.03851133 C12.5460236,8.78220065 12.6090888,8.26957929 12.4198933,7.84239482 Z" id="Shape"></path>
                                <path d="M8.49634411,10.635495 L7.4124597,10.1389856 C6.99558109,9.9971258 6.49532674,10.1389856 6.3285753,10.4227053 C6.16182385,10.7773549 6.3285753,11.2029344 6.66207819,11.3447942 L7.7459626,11.8413036 C8.24621694,12.0540934 8.74647128,11.7703737 8.82984701,11.557584 C9.07997418,11.2029344 8.91322273,10.7773549 8.49634411,10.635495 Z" id="Shape"></path>
                                <path d="M21.583471,7.84239482 L22.0869837,6.8171521 C22.2758009,6.38996764 22.6534355,6.30453074 22.9681309,6.56084142 C23.2828264,6.8171521 23.3457654,7.32977346 23.1569482,7.75695793 L22.5904964,8.78220065 C22.33874,9.3802589 21.8352273,9.12394822 21.7093491,9.03851133 C21.4575928,8.78220065 21.3946537,8.26957929 21.583471,7.84239482 Z" id="Shape"></path>
                                <path d="M25.5036559,10.635495 L26.5875403,10.1389856 C27.0044189,9.9971258 27.5046733,10.1389856 27.6714247,10.4227053 C27.8381762,10.7773549 27.6714247,11.2029344 27.3379218,11.3447942 L26.2540374,11.8413036 C25.7537831,12.0540934 25.2535287,11.7703737 25.170153,11.557584 C24.9200258,11.2029344 25.0867773,10.7773549 25.5036559,10.635495 Z" id="Shape"></path>
                                <path d="M7.36240602,15.5833333 L6.13533835,15.5833333 C5.67518797,15.5833333 5.36842105,15.95 5.36842105,16.5 C5.36842105,17.05 5.67518797,17.4166667 6.13533835,17.4166667 L7.28571429,17.4166667 C7.74586466,17.4166667 8.05263158,17.05 8.05263158,16.5 C8.05263158,15.95 7.74586466,15.5833333 7.36240602,15.5833333 Z" id="Shape"></path>
                                <path d="M29.5263158,16.5 C29.5263158,15.95 29.2195489,15.5833333 28.7593985,15.5833333 L27.6090226,15.5833333 C27.1488722,15.5833333 26.8421053,15.95 26.8421053,16.5 C26.8421053,17.05 27.1488722,17.4166667 27.6090226,17.4166667 L28.7593985,17.4166667 C29.1428571,17.4166667 29.5263158,16.9583333 29.5263158,16.5 Z" id="Shape"></path>
                                <path d="M7.36240602,15.5833333 L6.13533835,15.5833333 C5.67518797,15.5833333 5.36842105,15.95 5.36842105,16.5 C5.36842105,17.05 5.67518797,17.4166667 6.13533835,17.4166667 L7.28571429,17.4166667 C7.74586466,17.4166667 8.05263158,17.05 8.05263158,16.5 C8.05263158,15.95 7.74586466,15.5833333 7.36240602,15.5833333 Z" id="Shape"></path>
                                <path d="M29.5263158,16.5 C29.5263158,15.95 29.2195489,15.5833333 28.7593985,15.5833333 L27.6090226,15.5833333 C27.1488722,15.5833333 26.8421053,15.95 26.8421053,16.5 C26.8421053,17.05 27.1488722,17.4166667 27.6090226,17.4166667 L28.7593985,17.4166667 C29.1428571,17.4166667 29.5263158,16.9583333 29.5263158,16.5 Z" id="Shape"></path>
</svg>